<?xml version="1.0" standalone="no"?><!DOCTYPE svg PUBLIC "-//W3C//DTD SVG 1.1//EN" "http://www.w3.org/Graphics/SVG/1.1/DTD/svg11.dtd"><svg t="1751645416619" class="icon" viewBox="0 0 1360 1024" version="1.1" xmlns="http://www.w3.org/2000/svg" p-id="10615" xmlns:xlink="http://www.w3.org/1999/xlink" width="265.625" height="200"><path d="M275.133163 681.056836m-224.292089 0a224.29209 224.29209 0 1 0 448.584179 0 224.29209 224.29209 0 1 0-448.584179 0Z" fill="#09C484" p-id="10616"></path><path d="M1360.783098 596.11364l-1.642684-43.711824a46.3894 46.3894 0 0 0-6.65287-22.784029 47.227168 47.227168 0 0 0-1.757672-4.928052L1165.632225 85.633123c-30.011839-71.111796-112.195325-104.556844-183.684938-74.709274a140.728749 140.728749 0 0 0-64.803889 54.734235 47.161461 47.161461 0 0 0 15.309816 65.395255 47.637839 47.637839 0 0 0 65.707365-15.194828 44.779569 44.779569 0 0 1 79.243082 6.275053l159.340359 377.817348a1546.094294 1546.094294 0 0 0-450.522546 38.504516l-105.296053 24.80453-105.345332-24.80453a1552.188652 1552.188652 0 0 0-453.610793-38.389528l157.089882-372.610039a44.779569 44.779569 0 0 1 79.128094-6.275053 47.736401 47.736401 0 0 0 65.707365 15.211254 47.161461 47.161461 0 0 0 15.276963-65.395254 140.712322 140.712322 0 0 0-248.4724 19.958612L5.782248 529.897043a46.947912 46.947912 0 0 0-3.679612 18.46377c-0.164268 1.29772-0.279256 2.628295-0.344964 3.975296l-1.642684 43.531129a47.112181 47.112181 0 0 0 1.149879 12.550106l33.034377 140.679468a314.459021 314.459021 0 0 0 9.3633 32.508719l26.775751 77.74824a221.351685 221.351685 0 0 0 161.130885 143.537738l54.86565 12.155863A370.21172 370.21172 0 0 0 507.589393 996.238638a257.129345 257.129345 0 0 0 149.287133-166.157498l23.654651-81.657828 25.100214 86.783002c20.829235 72.278101 75.56347 131.41473 147.940132 161.21302a372.100807 372.100807 0 0 0 221.84449 18.578757l48.557743-10.825288c78.175337-17.494586 141.435103-72.048126 166.486035-144.671191l27.317837-79.275935c3.285368-9.691836 6.127212-19.383673 8.410543-29.272631l33.461475-142.404287a46.307265 46.307265 0 0 0 1.133452-12.435119z m-795.716187 207.799542a162.050788 162.050788 0 0 1-94.043666 104.556844 274.52537 274.52537 0 0 1-163.808461 13.880681l-54.849223-12.17229a125.501067 125.501067 0 0 1-91.579639-81.608547l-26.759325-77.764666c-2.677575-7.605627-4.780211-15.408377-6.685724-23.1947l-30.619632-130.593387a1452.477726 1452.477726 0 0 1 456.666185 33.839293l57.72392 13.683558z m668.227473-74.577859a169.722123 169.722123 0 0 1-5.732968 19.942185l-27.334264 79.292362c-14.127083 40.869981-50.841074 72.409516-97.099058 82.873414l-48.557743 10.841715a276.825128 276.825128 0 0 1-164.564095-13.683558c-45.863741-18.82516-79.900156-55.522723-92.499542-99.628792l-47.407864-164.268412 58.495981-13.864254a1453.003385 1453.003385 0 0 1 455.861271-33.658598z" fill="#333333" p-id="10617"></path></svg>